<svg width="52" height="57" viewBox="0 0 52 57" fill="none" xmlns="http://www.w3.org/2000/svg">
<path fill-rule="evenodd" clip-rule="evenodd" d="M27.5581 2.30397C26.648 2.32431 25.6147 2.9033 24.4563 4.04097C22.1195 6.12969 20.0515 8.30116 18.2527 10.5548L18.0978 10.7097L18.0048 10.8339L17.9117 10.927C16.0916 13.0361 13.993 16.0759 11.6151 20.0462L7.33453 26.8703C7.19 27.1183 6.97277 27.2736 6.68328 27.3355C6.39378 27.4182 6.11424 27.3771 5.84595 27.2113C5.598 27.0668 5.44265 26.8496 5.38077 26.5601C5.31889 26.271 5.36043 25.991 5.50497 25.7228C6.20772 24.5228 7.63489 22.2489 9.78554 18.8986C12.2252 14.825 14.3763 11.7132 16.237 9.56213C16.2989 9.45871 16.4231 9.31418 16.6092 9.12768C18.5945 6.70828 20.7141 4.48541 22.9676 2.45895C24.477 0.990703 25.9348 0.215257 27.3411 0.132617C28.416 0.0707371 29.4195 0.411722 30.3498 1.15602C32.9969 3.40968 33.6793 5.72605 32.397 8.1039C31.9422 9.05546 30.8357 11.8154 29.078 16.3859C28.6855 17.482 28.0749 19.6118 27.248 22.7756H31.3113L31.4662 22.5895C32.4589 21.5765 33.6684 21.0697 35.0955 21.0697H46.1379C47.6061 21.0697 48.8363 21.5864 49.829 22.6206C50.8632 23.6133 51.3799 24.8327 51.3799 26.2806C51.3799 27.7073 50.8524 28.9479 49.7979 30.003L49.6118 30.1579C49.9627 30.4058 50.2427 30.6438 50.4491 30.8714C51.4833 31.8844 52 33.0943 52 34.5007V34.5626C52 35.9689 51.4937 37.1992 50.4802 38.2537C49.8805 38.8332 49.2188 39.2464 48.4949 39.4944C49.3015 40.4044 49.7048 41.5 49.7048 42.7822V42.8441C49.7048 44.2708 49.1881 45.4912 48.1539 46.5041C47.1612 47.4968 45.9622 47.9931 44.5558 47.9931H43.9976C44.577 48.9031 44.8661 49.9269 44.8661 51.0637C44.8661 52.4904 44.4316 53.7004 43.5631 54.693C42.6328 55.7476 41.5673 56.2751 40.3683 56.2751H31.2178C30.9287 56.2751 30.7115 56.2539 30.5665 56.2132L30.3493 56.182C20.8782 56.0375 12.6902 54.6931 5.7832 52.1499C5.49413 52.0673 5.28686 51.8912 5.16266 51.6224C5.03847 51.3533 5.02852 51.0746 5.13151 50.7851C5.21416 50.4956 5.40023 50.2888 5.68973 50.1646C5.93768 50.0404 6.20641 50.03 6.49632 50.1334C12.5757 52.3256 19.5648 53.587 27.4644 53.9176C26.9884 53.0695 26.7508 52.1291 26.7508 51.095C26.7508 49.7098 27.1541 48.4994 27.9607 47.4657C28.4155 46.9278 28.9426 46.5145 29.5428 46.2251C28.6946 45.2532 28.271 44.1264 28.271 42.8441V42.7822C28.271 41.3555 28.7877 40.1352 29.8219 39.1222C30.4013 38.5433 31.0422 38.1296 31.7449 37.8816C30.9383 36.9305 30.535 35.8245 30.535 34.5626V34.5007C30.535 33.0944 31.0517 31.8849 32.0859 30.8714L32.272 30.6542C31.9617 30.4478 31.6826 30.2198 31.4346 29.9718C30.4004 28.9376 29.8837 27.7074 29.8837 26.2807C29.8837 25.8047 29.9456 25.3607 30.0698 24.947H26.6577L26.0995 27.2114C26.0169 27.5009 25.8516 27.7177 25.6032 27.8627C25.3344 28.0284 25.0553 28.0799 24.7659 28.0176C24.4764 27.9349 24.2596 27.7696 24.1146 27.5213C23.9489 27.2521 23.8974 26.9734 23.9597 26.6839L24.797 23.551C25.8312 19.5392 26.5855 16.8927 27.0614 15.6105C28.778 11.0613 29.9153 8.2281 30.4735 7.11168C31.2178 5.7469 30.7214 4.32019 28.9845 2.83111C28.5085 2.47974 28.0334 2.30405 27.5578 2.30405L27.5581 2.30397ZM32.6759 24.5127C32.2622 25.0506 32.0554 25.64 32.0554 26.2809C32.0554 27.129 32.3656 27.8422 32.9857 28.4211C33.5855 29.0416 34.2887 29.3514 35.0948 29.3514H46.2922C47.0781 29.2896 47.7397 28.9897 48.2776 28.4518C48.8981 27.8313 49.208 27.1073 49.208 26.2803C49.208 25.4322 48.8977 24.7295 48.2776 24.1712C47.7194 23.5507 47.0059 23.2409 46.1374 23.2409H35.095C34.2469 23.2409 33.5546 23.5403 33.0166 24.1405L32.7375 24.4196L32.6759 24.5127ZM2.68164 49.6372C2.51591 50.1132 2.17535 50.3507 1.65824 50.3507C1.53405 50.3507 1.41029 50.3196 1.2861 50.2577L0.57253 49.9167C0.303805 49.7722 0.12769 49.555 0.0450383 49.2655C-0.037612 48.976 -0.00645532 48.7072 0.138074 48.4589C0.282606 48.1897 0.499831 48.014 0.789327 47.9314C1.07882 47.8487 1.34755 47.8799 1.59592 48.0244L2.0611 48.2416C2.33026 48.3451 2.52628 48.5411 2.65047 48.831C2.77553 49.0997 2.78549 49.3689 2.68163 49.6372H2.68164ZM46.789 31.5228H35.6536C34.8678 31.5228 34.1958 31.8123 33.6376 32.3912C33.017 33.0118 32.7072 33.7145 32.7072 34.5003V34.5622C32.7072 35.3892 33.0175 36.1131 33.6376 36.7337C34.1958 37.2919 34.8677 37.5818 35.6536 37.6022H46.789C47.6159 37.6022 48.3295 37.3027 48.9292 36.7025C49.529 36.1028 49.8289 35.3893 49.8289 34.5623V34.5004C49.8289 33.7354 49.5294 33.0322 48.9292 32.3913C48.3299 31.8123 47.6167 31.5228 46.789 31.5228V31.5228ZM44.6497 39.7739H33.4522C32.6041 39.7739 31.9117 40.0734 31.3738 40.6736C30.7533 41.2318 30.4434 41.9355 30.4434 42.7827V42.8446C30.4434 43.6715 30.7429 44.385 31.3431 44.9848C31.9013 45.543 32.5634 45.8329 33.3284 45.8533L44.5569 45.8221C45.3635 45.8221 46.0563 45.543 46.6353 44.9848C47.2351 44.385 47.535 43.6715 47.535 42.8446V42.7827C47.535 41.9345 47.2355 41.2422 46.6353 40.7043C46.055 40.0842 45.3934 39.7739 44.6495 39.7739L44.6497 39.7739ZM29.6669 48.8314C29.1706 49.4519 28.9226 50.1962 28.9226 51.0647C28.9226 51.9543 29.1706 52.7086 29.6669 53.3291C29.9984 53.7216 30.3493 53.96 30.7215 54.0426L30.7834 54.0738L40.3679 54.1049C40.9261 54.1049 41.4428 53.8358 41.9188 53.2984C42.4354 52.6575 42.6942 51.9232 42.6942 51.0962C42.6942 50.1862 42.4354 49.4418 41.9188 48.8629C41.464 48.3462 40.9776 48.0563 40.4609 47.9944H31.2175C30.6186 47.9936 30.1015 48.2722 29.6671 48.8313L29.6669 48.8314Z" fill="url(#paint0_linear_28_144)"/>
<defs>
<linearGradient id="paint0_linear_28_144" x1="26" y1="0.125488" x2="26" y2="56.2751" gradientUnits="userSpaceOnUse">
<stop stop-color="#36148C"/>
<stop offset="1" stop-color="#691F97"/>
</linearGradient>
</defs>
</svg>
