<svg width="49" height="54" viewBox="0 0 49 54" fill="none" xmlns="http://www.w3.org/2000/svg">
<path d="M15.535 53.7186C21.6057 53.7186 26.8713 50.2163 29.4251 45.1277C30.0804 45.1581 30.7299 45.1785 31.3565 45.1785C31.6363 45.1785 31.9086 45.1785 32.1863 45.1714C32.4902 45.1643 32.7937 45.1572 33.0906 45.1368C33.2259 45.1356 33.3566 45.1289 33.504 45.1231C33.5248 45.1231 33.5456 45.1227 33.5669 45.1206L34.437 45.0586C34.6669 45.0448 34.8829 45.0244 35.1361 45.0007C42.6024 44.2987 47.7034 41.6324 47.9251 38.3466C47.9497 38.213 48.2236 36.6904 48.2236 35.0812C48.2236 33.7406 48.0309 32.4208 47.948 31.9486C48.1279 30.847 48.2236 29.7669 48.2236 28.824C48.2236 27.8964 48.1304 26.8351 47.9509 25.7127C48.1287 24.6132 48.2236 23.5382 48.2236 22.5993C48.2236 21.2158 48.0255 19.9205 47.9538 19.4991C48.0334 19.0233 48.2211 17.751 48.2211 16.4187C48.2211 15.056 48.0242 13.7565 47.9484 13.3077C48.0242 12.8589 48.2211 11.5599 48.2211 10.1967C48.2211 8.77902 48.008 7.43009 47.9401 7.03626C47.9193 3.0239 40.7973 0 31.3567 0C21.9015 0 14.7711 3.03349 14.7711 7.05491C14.7711 7.05908 14.7715 7.06282 14.7715 7.06699C14.6974 7.50332 14.4972 8.81358 14.4972 10.1892C14.4972 11.5518 14.6941 12.8513 14.7699 13.3001C14.6941 13.749 14.4972 15.0479 14.4972 16.4111C14.4972 17.7618 14.6903 19.0515 14.7682 19.5112C14.6883 19.9796 14.4938 21.2511 14.4938 22.5917C14.4938 22.625 14.4967 22.6554 14.4976 22.6891C6.41381 23.225 0 29.9677 0 38.1844C0 46.7502 6.96879 53.719 15.5346 53.719L15.535 53.7186ZM16.2903 10.1043C18.8687 12.5149 24.5001 14.1113 31.357 14.1113C38.2188 14.1113 43.8529 12.5129 46.4291 10.0989C46.4291 10.1322 46.4307 10.1647 46.4307 10.198C46.4307 11.6764 46.1626 13.1299 46.1597 13.1441C46.1568 13.1595 46.158 13.1745 46.156 13.1895C46.1547 13.199 46.1547 13.2061 46.1535 13.2157C46.1505 13.2469 46.1455 13.2773 46.1455 13.3081C46.1455 13.3106 46.1451 13.3135 46.1451 13.3164C46.1206 14.2882 45.19 15.1105 44.4057 15.6322C41.7402 17.4221 36.7399 18.5342 31.3566 18.5342C25.9732 18.5342 20.9734 17.4221 18.3043 15.6297C17.529 15.1135 16.6044 14.2983 16.5698 13.3456C16.5702 13.3307 16.5715 13.3157 16.5715 13.3007C16.5715 13.2674 16.5669 13.2357 16.5632 13.2028C16.5607 13.1808 16.5619 13.1587 16.5578 13.1358C16.5548 13.1217 16.2867 11.6681 16.2867 10.1897C16.2875 10.1618 16.2888 10.1331 16.2896 10.1044L16.2903 10.1043ZM44.4605 21.8137C44.4409 21.8249 44.4209 21.837 44.4022 21.8495C41.7326 23.6365 36.7344 24.746 31.3584 24.746C25.9822 24.7464 20.9835 23.6369 18.3136 21.8495C18.2953 21.837 18.2761 21.8249 18.2561 21.8141C17.4934 21.292 16.6153 20.4888 16.5741 19.5459C16.5745 19.5267 16.5716 19.5076 16.5712 19.4884V19.4826C16.5712 19.4701 16.5683 19.4593 16.5675 19.4468C16.565 19.4168 16.5658 19.3877 16.5595 19.3577C16.5595 19.3573 16.5566 19.3423 16.5558 19.3381C16.5529 19.3198 16.5504 19.3011 16.5462 19.2832C16.4921 18.9696 16.2885 17.701 16.2885 16.4117C16.2885 16.3813 16.2902 16.3513 16.2902 16.3209C16.5766 16.5865 16.9126 16.8538 17.3102 17.119C20.3 19.1271 25.5513 20.3253 31.358 20.3253C37.1644 20.3253 42.415 19.1267 45.4015 17.1212C45.8025 16.8543 46.1405 16.5853 46.4286 16.3168C46.4286 16.3514 46.4311 16.3847 46.4311 16.4196C46.4311 17.692 46.233 18.941 46.1763 19.2745C46.1597 19.3432 46.1476 19.414 46.1476 19.4881C46.1476 19.4922 46.1489 19.496 46.1489 19.5001C46.1485 19.5097 46.1464 19.5197 46.1464 19.5293C46.1268 20.4702 45.2333 21.2851 44.4611 21.8138L44.4605 21.8137ZM16.2881 22.6697C16.2881 22.6426 16.2852 22.6185 16.2852 22.5914C16.2852 22.5697 16.2865 22.5489 16.2865 22.5277C16.3406 22.5785 16.3989 22.6293 16.4568 22.6801C16.4001 22.6767 16.3448 22.6726 16.2881 22.6697L16.2881 22.6697ZM31.3581 26.5366C37.1174 26.5366 42.3341 25.3568 45.3377 23.3778C45.361 23.3653 45.3835 23.3508 45.4055 23.3362C45.806 23.0664 46.1433 22.7954 46.4314 22.5256C46.4314 22.5505 46.4331 22.5751 46.4331 22.5997C46.4331 23.1975 46.3881 24.1788 46.1699 25.5161C46.1699 25.5174 46.1699 25.5178 46.1695 25.519C46.1558 25.5811 46.1474 25.6456 46.1474 25.7118C46.1474 25.7172 46.1487 25.7214 46.1491 25.7268C46.1316 26.6781 45.2411 27.4913 44.4687 28.0184C44.445 28.0317 44.4216 28.0458 44.3988 28.0608C41.7404 29.8465 36.7435 30.9557 31.3571 30.9557C30.6177 30.9557 29.9174 30.9311 29.2471 30.8936C28.2487 29.0238 26.8784 27.3822 25.2368 26.0648C27.1445 26.3733 29.2134 26.5365 31.3575 26.5365L31.3581 26.5366ZM31.3572 32.7469C37.1232 32.7469 42.3365 31.5686 45.3304 29.5922C45.3496 29.5822 45.3679 29.5701 45.3858 29.5589C45.3966 29.5522 45.4075 29.5456 45.4174 29.5381C45.8125 29.2729 46.1481 29.0056 46.4329 28.7395C46.4329 28.767 46.4333 28.7978 46.4333 28.8245C46.4333 29.4219 46.3892 30.4007 46.1702 31.7343C46.1564 31.8001 46.1481 31.868 46.1481 31.93C46.1481 31.9379 46.1498 31.945 46.1506 31.9525C46.1506 31.9591 46.149 31.9658 46.149 31.9729C46.1127 32.9363 45.1855 33.754 44.4095 34.2715C44.3899 34.2848 44.3708 34.2985 44.3516 34.3131C44.3554 34.3102 44.357 34.3089 44.3437 34.3173C41.6654 36.0805 36.69 37.175 31.3586 37.175C31.2487 37.175 31.1429 37.1704 31.0346 37.1692C30.9339 35.615 30.605 34.1219 30.0783 32.7247C30.4946 32.7385 30.9201 32.7468 31.3577 32.7468L31.3572 32.7469ZM34.9378 43.2212C34.7355 43.2404 34.5386 43.2587 34.3175 43.272L33.4694 43.3332C33.4419 43.3332 33.4078 43.3336 33.3978 43.3345C33.2612 43.3416 33.1297 43.3399 32.9935 43.3486C32.7154 43.3682 32.4302 43.3749 32.1425 43.3815C31.8852 43.3882 31.635 43.3882 31.3785 43.3882C30.9905 43.3844 30.5874 43.3786 30.1777 43.3665C30.6707 41.9772 30.9738 40.4988 31.0504 38.9603C31.1536 38.9616 31.2531 38.9658 31.3572 38.9658C37.1057 38.9658 42.3279 37.787 45.3155 35.8202C45.3405 35.8053 45.3875 35.7765 45.4425 35.7332C45.8255 35.4747 46.1523 35.2145 46.4305 34.9555C46.4309 34.9971 46.433 35.0392 46.433 35.0804C46.433 36.5588 46.1648 38.0139 46.1627 38.0285C46.1544 38.0726 46.1532 38.1164 46.1519 38.1593C46.1519 38.163 46.1507 38.1659 46.1507 38.1688C46.0945 40.114 42.1555 42.5425 34.938 43.2211L34.9378 43.2212ZM31.3572 1.79089C40.0497 1.79089 46.1138 4.54833 46.1501 7.03313C46.1488 7.05644 46.1476 7.07893 46.1484 7.10224C46.073 9.5799 40.0215 12.3203 31.3577 12.3203C22.7336 12.3203 16.6992 9.60569 16.5692 7.13635C16.5721 7.0893 16.5717 7.04267 16.5675 6.99604C16.662 4.52169 22.7073 1.7909 31.3571 1.7909L31.3572 1.79089ZM15.5359 24.4411C23.0479 24.4411 29.168 30.5006 29.2746 37.9879C29.2742 37.9979 29.2708 38.0075 29.2704 38.0179C29.2688 38.0596 29.2742 38.0995 29.2783 38.1403C29.2783 38.1553 29.2796 38.1695 29.2796 38.1845C29.2792 45.7628 23.1135 51.9285 15.5356 51.9285C7.95764 51.9285 1.79153 45.7628 1.79153 38.1845C1.79153 30.6061 7.95721 24.4404 15.5356 24.4404L15.5359 24.4411Z" fill="url(#paint0_linear_28_140)"/>
<path d="M15.389 39.1965H15.5339C16.1796 39.1965 16.7963 39.51 17.1835 40.0358C17.559 40.5492 17.6652 41.2049 17.4737 41.8415C17.253 42.5122 16.6781 43.0422 16.0202 43.1892C15.8836 43.2254 15.7362 43.2417 15.5422 43.2417C14.6629 43.2417 13.8839 42.6829 13.6025 41.8498C13.4734 41.4572 13.0933 41.1932 12.657 41.1932C12.3322 41.1932 12.0237 41.3514 11.8326 41.6154C11.6124 41.9222 11.4196 42.2387 11.4983 42.4772C11.8643 43.6188 13.0292 44.6285 13.9572 45.0827L14.1242 45.1643V46.6565C14.1242 47.166 14.931 47.664 15.5327 47.664C16.1343 47.664 16.9412 47.166 16.9412 46.6565V45.1577L17.1173 45.0781C17.9308 44.7118 19.0129 43.8374 19.4659 42.7844C19.9596 41.6158 19.7952 40.1019 19.0295 38.7384C18.4063 37.6538 17.0519 36.9252 15.6601 36.9252H15.5323C14.7479 36.9252 14.1762 36.6592 13.8311 36.1333C13.4514 35.5533 13.3952 34.9097 13.6691 34.2739C13.9144 33.6961 14.4473 33.2693 15.0934 33.134C15.2437 33.102 15.3878 33.102 15.5147 33.102C16.3974 33.102 17.1806 33.6636 17.4628 34.5022C17.5931 34.8989 17.9778 35.1762 18.4 35.1762C18.7301 35.1762 19.0416 35.018 19.231 34.7574C19.4021 34.5122 19.6615 34.142 19.5766 33.8876C19.1607 32.6477 17.875 31.6644 17.1122 31.3054L16.9411 31.2246V29.7037C16.9411 29.1987 16.1342 28.7045 15.5326 28.7045C14.931 28.7045 14.1241 29.1987 14.1241 29.7037V31.23L13.9455 31.3083C13.1186 31.6717 12.027 32.5598 11.5844 33.6481C11.0902 34.8721 11.293 36.2948 12.1573 37.6529C12.7694 38.6196 13.9767 39.1962 15.389 39.1962L15.389 39.1965Z" fill="url(#paint1_linear_28_140)"/>
<defs>
<linearGradient id="paint0_linear_28_140" x1="24.1118" y1="0" x2="24.1118" y2="53.719" gradientUnits="userSpaceOnUse">
<stop stop-color="#36148C"/>
<stop offset="1" stop-color="#691F97"/>
</linearGradient>
<linearGradient id="paint1_linear_28_140" x1="15.5334" y1="28.7045" x2="15.5334" y2="47.664" gradientUnits="userSpaceOnUse">
<stop stop-color="#36148C"/>
<stop offset="1" stop-color="#691F97"/>
</linearGradient>
</defs>
</svg>
