<svg width="45" height="46" viewBox="0 0 45 46" fill="none" xmlns="http://www.w3.org/2000/svg">
<path fill-rule="evenodd" clip-rule="evenodd" d="M11.4954 33.522L15.8329 29.1846L16.8054 30.1571L12.468 34.4946L11.4954 33.522Z" fill="url(#paint0_linear_28_130)"/>
<path fill-rule="evenodd" clip-rule="evenodd" d="M6.39544 40.567L5.42288 39.5944L9.76033 35.257L10.7329 36.2295L6.39544 40.567Z" fill="url(#paint1_linear_28_130)"/>
<path fill-rule="evenodd" clip-rule="evenodd" d="M22.8791 24.0844L18.5417 28.4218L17.5691 27.4493L21.9065 23.1118L22.8791 24.0844Z" fill="url(#paint2_linear_28_130)"/>
<path fill-rule="evenodd" clip-rule="evenodd" d="M28.9515 18.0119L24.6141 22.3493L23.6415 21.3768L27.979 17.0393L28.9515 18.0119Z" fill="url(#paint3_linear_28_130)"/>
<path fill-rule="evenodd" clip-rule="evenodd" d="M34.5895 12.3727L30.2521 16.7102L29.2795 15.7376L33.617 11.4001L34.5895 12.3727Z" fill="url(#paint4_linear_28_130)"/>
<path fill-rule="evenodd" clip-rule="evenodd" d="M13.072 29.4914L2.58049 19.0018C1.83717 18.2613 1.84146 17.1938 1.84146 16.1634V15.9174L1.84467 4.57775C1.84467 3.1068 3.045 1.91041 4.51448 1.91041L15.8523 1.9122C15.8523 1.9122 18.0502 1.86721 19.5714 3.38781L29.4277 13.1363L30.8082 11.756L21.1841 2.24059C18.7799 -0.163622 15.8452 0.00244672 15.8452 0.00244672L4.51558 0.0131575C1.96824 0.0131575 0 2.05817 0 4.60515L0.105317 15.9174V16.1598C0.105317 17.3873 -0.00999947 19.0695 1.31067 20.3848L11.7428 30.8718L13.072 29.4914Z" fill="url(#paint5_linear_28_130)"/>
<path fill-rule="evenodd" clip-rule="evenodd" d="M43.7808 24.7315L34.2343 15.1823L32.8538 16.5625L42.402 26.1126C42.8183 26.5282 43.0479 27.0813 43.0479 27.67C43.0479 28.2587 42.819 28.8128 42.4024 29.228L29.1644 42.4706C28.7485 42.8858 28.1954 43.1161 27.6067 43.1161C27.018 43.1161 26.465 42.8858 26.049 42.4706L16.4989 32.9168L15.1186 34.2974L24.6687 43.8502C25.456 44.636 26.4992 45.0676 27.6067 45.0676C28.7143 45.0676 29.7574 44.636 30.5432 43.852L43.783 30.6076C44.5674 29.8261 45.0001 28.7817 45.0001 27.6696C45.0001 26.5589 44.5667 25.5146 43.7809 24.7306L43.7808 24.7315Z" fill="url(#paint6_linear_28_130)"/>
<path fill-rule="evenodd" clip-rule="evenodd" d="M6.76919 6.83773C5.28399 8.32294 5.28399 10.741 6.76884 12.2277C7.48966 12.9475 8.44543 13.3441 9.46296 13.3441C10.4805 13.3441 11.4366 12.9471 12.1556 12.2277C13.6394 10.7418 13.6408 8.32404 12.156 6.83773C11.4373 6.11869 10.4808 5.72131 9.46368 5.72131C8.44542 5.72131 7.48867 6.1176 6.76928 6.83773H6.76919ZM10.7746 10.8482C10.4194 11.2037 9.96558 11.3923 9.46286 11.3923C8.96014 11.3923 8.50565 11.203 8.14756 10.846C7.42495 10.122 7.42459 8.94239 8.14934 8.21761C8.50529 7.86059 8.96014 7.67279 9.46391 7.67279C9.95875 7.67279 10.4247 7.8663 10.7753 8.21725C11.4997 8.942 11.4993 10.1223 10.7746 10.8481L10.7746 10.8482Z" fill="url(#paint7_linear_28_130)"/>
<path fill-rule="evenodd" clip-rule="evenodd" d="M39.6897 5.32764L40.6623 6.3002L36.3249 10.6376L35.3523 9.66508L39.6897 5.32764Z" fill="url(#paint8_linear_28_130)"/>
<defs>
<linearGradient id="paint0_linear_28_130" x1="14.1504" y1="29.1846" x2="14.1504" y2="34.4946" gradientUnits="userSpaceOnUse">
<stop stop-color="#36148C"/>
<stop offset="1" stop-color="#691F97"/>
</linearGradient>
<linearGradient id="paint1_linear_28_130" x1="8.07789" y1="35.257" x2="8.07789" y2="40.567" gradientUnits="userSpaceOnUse">
<stop stop-color="#36148C"/>
<stop offset="1" stop-color="#691F97"/>
</linearGradient>
<linearGradient id="paint2_linear_28_130" x1="20.2241" y1="23.1118" x2="20.2241" y2="28.4218" gradientUnits="userSpaceOnUse">
<stop stop-color="#36148C"/>
<stop offset="1" stop-color="#691F97"/>
</linearGradient>
<linearGradient id="paint3_linear_28_130" x1="26.2965" y1="17.0393" x2="26.2965" y2="22.3493" gradientUnits="userSpaceOnUse">
<stop stop-color="#36148C"/>
<stop offset="1" stop-color="#691F97"/>
</linearGradient>
<linearGradient id="paint4_linear_28_130" x1="31.9345" y1="11.4001" x2="31.9345" y2="16.7102" gradientUnits="userSpaceOnUse">
<stop stop-color="#36148C"/>
<stop offset="1" stop-color="#691F97"/>
</linearGradient>
<linearGradient id="paint5_linear_28_130" x1="15.4041" y1="0" x2="15.4041" y2="30.8718" gradientUnits="userSpaceOnUse">
<stop stop-color="#36148C"/>
<stop offset="1" stop-color="#691F97"/>
</linearGradient>
<linearGradient id="paint6_linear_28_130" x1="30.0594" y1="15.1823" x2="30.0594" y2="45.0676" gradientUnits="userSpaceOnUse">
<stop stop-color="#36148C"/>
<stop offset="1" stop-color="#691F97"/>
</linearGradient>
<linearGradient id="paint7_linear_28_130" x1="9.46213" y1="5.72131" x2="9.46213" y2="13.3441" gradientUnits="userSpaceOnUse">
<stop stop-color="#36148C"/>
<stop offset="1" stop-color="#691F97"/>
</linearGradient>
<linearGradient id="paint8_linear_28_130" x1="38.0073" y1="5.32764" x2="38.0073" y2="10.6376" gradientUnits="userSpaceOnUse">
<stop stop-color="#36148C"/>
<stop offset="1" stop-color="#691F97"/>
</linearGradient>
</defs>
</svg>
