<svg width="68" height="52" viewBox="0 0 68 52" fill="none" xmlns="http://www.w3.org/2000/svg">
<path d="M62.4946 15.3149L63.649 14.1605C64.1067 13.7227 64.3684 13.1187 64.3756 12.4854C64.3827 11.8516 64.1343 11.2421 63.686 10.7943C63.2382 10.346 62.6287 10.0976 61.9949 10.1048C61.3617 10.1114 60.7577 10.3736 60.3198 10.8313L59.1146 12.0382H59.1141C55.8402 9.43072 51.8967 7.79986 47.7366 7.33388V5.5932H48.3417C48.9981 5.5932 49.627 5.3326 50.0907 4.86831C50.5545 4.40456 50.8151 3.77572 50.8151 3.11985V2.47336C50.8151 1.81748 50.5545 1.18809 50.0907 0.724341C49.627 0.260593 48.9981 0 48.3417 0H42.1633C41.5074 0 40.8786 0.260593 40.4148 0.724341C39.9505 1.18809 39.6899 1.81748 39.6899 2.47336V3.11985C39.6899 3.77573 39.9505 4.40456 40.4148 4.86831C40.8786 5.33262 41.5074 5.5932 42.1633 5.5932H42.77V7.32624V7.32569C37.9116 7.87999 33.368 10.0111 29.835 13.3932C26.3022 16.7748 23.9752 21.2207 23.2094 26.051H0.824816C0.369336 26.051 0 26.4203 0 26.8753C0 27.3307 0.36935 27.7001 0.824816 27.7001H23.0017C22.952 28.3035 22.9095 28.9103 22.9095 29.527C22.91 30.2982 22.9498 31.0684 23.0298 31.8352H12.5131C12.0576 31.8352 11.6888 32.2046 11.6888 32.6601C11.6888 33.115 12.0576 33.4843 12.5131 33.4843H23.2821C23.5123 34.7541 23.853 36.0008 24.3012 37.2109H7.27465C6.81917 37.2109 6.44983 37.5797 6.44983 38.0352C6.44983 38.4906 6.81918 38.86 7.27465 38.86H24.9797C27.6628 44.6999 32.7321 49.1018 38.8912 50.9386C45.0503 52.7754 51.7025 51.8694 57.146 48.4525C62.5897 45.0362 66.2975 39.4396 67.3216 33.0937C68.3451 26.7484 66.5856 20.2704 62.4924 15.3152L62.4946 15.3149ZM61.4937 11.9892C61.7714 11.728 62.2064 11.7347 62.4764 12.0041C62.7458 12.2735 62.7524 12.7091 62.4913 12.9868L61.3849 14.0932C61.0553 13.7537 60.7251 13.4334 60.3724 13.1038L61.4937 11.9892ZM41.3393 3.11987V2.47337C41.3393 2.01789 41.7087 1.64856 42.1636 1.64856H48.3519C48.5706 1.64856 48.7803 1.73579 48.9349 1.89037C49.0895 2.04495 49.1767 2.25474 49.1767 2.47337V3.11987C49.1767 3.3385 49.0895 3.54773 48.9349 3.70232C48.7803 3.85746 48.5706 3.94413 48.3519 3.94413H42.1636C41.7087 3.94413 41.3393 3.57478 41.3393 3.11987ZM44.4194 5.59322H46.0978V7.22239C45.8173 7.2108 45.5418 7.17933 45.2586 7.17933C44.9748 7.17933 44.6999 7.2108 44.4194 7.22239V5.59322ZM24.5605 29.5269C24.5605 28.9102 24.5986 28.3034 24.6527 27.7H26.4796C26.4216 28.3017 26.3874 28.9101 26.3874 29.5269C26.3874 32.1774 26.9494 34.7982 28.0365 37.2157H26.0545C25.0674 34.7722 24.5606 32.1619 24.5606 29.5269H24.5605ZM32.2919 26.0509H28.3892C29.4614 20.7839 32.9274 16.3176 37.7631 13.97C42.5989 11.6231 48.2523 11.6634 53.0541 14.0793C57.8557 16.4953 61.2576 21.0108 62.2547 26.2932C63.2518 31.575 61.7303 37.0198 58.1401 41.0203C54.5499 45.0207 49.3 47.1191 43.9416 46.6963C38.583 46.2739 33.7273 43.3781 30.8085 38.8643H39.208C39.6635 38.8643 40.0328 38.4955 40.0328 38.0401C40.0328 37.5846 39.6635 37.2158 39.208 37.2158H29.8706C28.6659 34.8314 28.0365 32.1979 28.0338 29.5269C28.0349 28.9169 28.068 28.3068 28.1326 27.7H32.2893C32.7447 27.7 33.1141 27.3307 33.1141 26.8752C33.1141 26.4203 32.7447 26.0509 32.2893 26.0509L32.2919 26.0509ZM45.2588 50.2262C41.435 50.2207 37.6869 49.1562 34.4307 47.1504C31.1745 45.1452 28.5372 42.2777 26.8114 38.8647H28.8822C31.8337 44.0361 37.0542 47.5093 42.9638 48.2348C48.8733 48.9602 54.7791 46.8524 58.8937 42.5483C63.0083 38.2448 64.8496 32.2514 63.8597 26.3796C62.8698 20.5081 59.1659 15.4493 53.8675 12.7325C48.5697 10.0156 42.2996 9.9599 36.954 12.5829C31.6087 15.2053 27.8158 20.1984 26.7221 26.0511H24.8754C25.7659 20.841 28.6169 16.1698 32.8431 12.9953C37.0687 9.82075 42.3501 8.38422 47.6013 8.97994C52.8533 9.57621 57.678 12.1594 61.0849 16.2007C64.4918 20.2415 66.2231 25.4327 65.9239 30.7102C65.6241 35.987 63.3159 40.9492 59.4733 44.5781C55.6302 48.2076 50.5443 50.2282 45.2592 50.226L45.2588 50.2262ZM38.663 24.8001L38.6636 24.7995C38.3202 24.5003 38.2848 23.9785 38.5841 23.6357C38.8838 23.2923 39.405 23.257 39.7484 23.5562L45.3019 28.4007L54.5356 20.1199C54.8756 19.8246 55.3897 19.856 55.6905 20.1911C55.9914 20.5263 55.9677 21.0408 55.637 21.3467L46.553 29.4939L47.9216 30.6875L47.9222 30.6881C48.2656 30.9873 48.3009 31.5085 48.0011 31.8519C47.7019 32.1953 47.1801 32.2306 46.8373 31.9314L45.3151 30.6042L43.8444 31.9231C43.5043 32.2185 42.9903 32.187 42.6894 31.8519C42.3885 31.5168 42.4123 31.0022 42.743 30.6964L44.0619 29.5127L38.663 24.8001ZM15.4064 44.7212C15.4064 44.9398 15.3191 45.1496 15.1646 45.3042C15.01 45.4588 14.8002 45.5455 14.5816 45.5455H12.5157C12.0602 45.5455 11.6914 45.1767 11.6914 44.7212C11.6914 44.2657 12.0602 43.8969 12.5157 43.8969H14.5816C14.8002 43.8969 15.01 43.9836 15.1646 44.1382C15.3191 44.2928 15.4064 44.5026 15.4064 44.7212ZM27.2238 44.7212C27.2238 44.9398 27.1371 45.1496 26.9825 45.3042C26.828 45.4588 26.6182 45.5455 26.3995 45.5455H18.2424C17.7869 45.5455 17.4181 45.1767 17.4181 44.7212C17.4181 44.2657 17.7869 43.8969 18.2424 43.8969H26.3995C26.6182 43.8969 26.8279 43.9836 26.9825 44.1382C27.1371 44.2928 27.2238 44.5026 27.2238 44.7212Z" fill="white"/>
</svg>
