<svg width="34" height="34" viewBox="0 0 34 34" fill="none" xmlns="http://www.w3.org/2000/svg">
<path fill-rule="evenodd" clip-rule="evenodd" d="M17.0002 0.000105672C7.60378 0.000105672 0 7.59933 0 17.0003C0 20.5457 1.08118 23.8248 3.00167 26.6426C3.14634 26.8572 3.18548 27.1261 3.1078 27.373L1.38122 33.1504L7.03916 31.1979V31.1982C7.28404 31.1164 7.55293 31.1508 7.76964 31.291C10.4197 33.0105 13.5924 34.0003 16.9998 34.0003C26.4008 34.0003 34 26.4011 34 17.0002C34 7.59923 26.4008 0 16.9998 0L17.0002 0.000105672ZM10.0408 7.41097L13.1352 12.5243L11.8468 13.7994L11.8471 13.7997C11.5773 14.0715 11.523 14.4904 11.7142 14.8222C13.6804 18.2267 16.0097 20.8753 19.2713 22.3128C19.5912 22.4551 19.9653 22.3866 20.2143 22.1403L21.5822 20.7725L26.576 23.8936C26.0231 25.1381 25.3022 25.879 24.4777 26.3106C23.5225 26.8108 22.356 26.9053 21.0246 26.6293C18.3618 26.0773 15.1455 23.9846 12.5245 21.3034C9.90351 18.6226 7.8751 15.3624 7.35811 12.71C7.0996 11.3839 7.21374 10.2419 7.70349 9.33659C8.12505 8.55694 8.84128 7.88961 10.0411 7.41079L10.0408 7.41097Z" fill="url(#paint0_linear_28_191)"/>
<defs>
<linearGradient id="paint0_linear_28_191" x1="17" y1="0" x2="17" y2="34.0003" gradientUnits="userSpaceOnUse">
<stop stop-color="#0AC682"/>
<stop offset="1" stop-color="#037E52"/>
</linearGradient>
</defs>
</svg>
